<svg width="35" height="34" viewBox="0 0 35 34" fill="none" xmlns="http://www.w3.org/2000/svg">
<g clip-path="url(#clip0_3263_225179)">
<circle cx="17.5" cy="17" r="17" fill="white"/>
<path d="M17.5 31.875C13.5549 31.875 9.77139 30.3078 6.98179 27.5182C4.19218 24.7286 2.625 20.9451 2.625 17C2.625 13.0549 4.19218 9.27139 6.98179 6.48179C9.77139 3.69218 13.5549 2.125 17.5 2.125C21.4451 2.125 25.2286 3.69218 28.0182 6.48179C30.8078 9.27139 32.375 13.0549 32.375 17C32.375 20.9451 30.8078 24.7286 28.0182 27.5182C25.2286 30.3078 21.4451 31.875 17.5 31.875ZM17.5 34C22.0087 34 26.3327 32.2089 29.5208 29.0208C32.7089 25.8327 34.5 21.5087 34.5 17C34.5 12.4913 32.7089 8.1673 29.5208 4.97919C26.3327 1.79107 22.0087 0 17.5 0C12.9913 0 8.6673 1.79107 5.47919 4.97919C2.29107 8.1673 0.5 12.4913 0.5 17C0.5 21.5087 2.29107 25.8327 5.47919 29.0208C8.6673 32.2089 12.9913 34 17.5 34Z" fill="#5D5D5D"/>
<path d="M9.60935 20.3299C9.85338 20.189 10.1434 20.1508 10.4156 20.2237C10.6878 20.2967 10.9198 20.4747 11.0607 20.7188C11.7137 21.8497 12.6529 22.7888 13.7839 23.4415C14.9149 24.0943 16.1978 24.4378 17.5037 24.4375C18.8096 24.4378 20.0926 24.0943 21.2236 23.4415C22.3546 22.7888 23.2938 21.8497 23.9467 20.7188C24.016 20.5969 24.1086 20.49 24.2194 20.4042C24.3301 20.3183 24.4568 20.2552 24.592 20.2185C24.7272 20.1818 24.8684 20.1722 25.0073 20.1903C25.1463 20.2083 25.2803 20.2537 25.4016 20.3238C25.523 20.3938 25.6293 20.4872 25.7144 20.5985C25.7995 20.7098 25.8618 20.8369 25.8976 20.9723C25.9334 21.1078 25.9421 21.249 25.9231 21.3878C25.9041 21.5267 25.8578 21.6604 25.787 21.7812C24.9475 23.2352 23.7401 24.4425 22.286 25.2818C20.832 26.1211 19.1826 26.5628 17.5037 26.5625C15.8248 26.5628 14.1754 26.1211 12.7214 25.2818C11.2674 24.4425 10.0599 23.2352 9.22047 21.7812C9.07958 21.5372 9.0414 21.2472 9.11433 20.975C9.18726 20.7028 9.36532 20.4708 9.60935 20.3299ZM15.3787 13.8125C15.3787 15.572 14.4267 17 13.2537 17C12.0807 17 11.1287 15.572 11.1287 13.8125C11.1287 12.053 12.0807 10.625 13.2537 10.625C14.4267 10.625 15.3787 12.053 15.3787 13.8125ZM23.8787 13.8125C23.8787 15.572 22.9267 17 21.7537 17C20.5807 17 19.6287 15.572 19.6287 13.8125C19.6287 12.053 20.5807 10.625 21.7537 10.625C22.9267 10.625 23.8787 12.053 23.8787 13.8125Z" fill="#5D5D5D"/>
</g>
<defs>
<clipPath id="clip0_3263_225179">
<rect width="34" height="34" fill="white" transform="translate(0.5)"/>
</clipPath>
</defs>
</svg>
