<svg width="35" height="34" viewBox="0 0 35 34" fill="none" xmlns="http://www.w3.org/2000/svg">
<g clip-path="url(#clip0_3263_225187)">
<circle cx="17.5" cy="17" r="17" fill="white"/>
<path d="M17.5 31.875C13.5549 31.875 9.77139 30.3078 6.98179 27.5182C4.19218 24.7286 2.625 20.9451 2.625 17C2.625 13.0549 4.19218 9.27139 6.98179 6.48179C9.77139 3.69218 13.5549 2.125 17.5 2.125C21.4451 2.125 25.2286 3.69218 28.0182 6.48179C30.8078 9.27139 32.375 13.0549 32.375 17C32.375 20.9451 30.8078 24.7286 28.0182 27.5182C25.2286 30.3078 21.4451 31.875 17.5 31.875ZM17.5 34C22.0087 34 26.3327 32.2089 29.5208 29.0208C32.7089 25.8327 34.5 21.5087 34.5 17C34.5 12.4913 32.7089 8.1673 29.5208 4.97919C26.3327 1.79107 22.0087 0 17.5 0C12.9913 0 8.6673 1.79107 5.47919 4.97919C2.29107 8.1673 0.5 12.4913 0.5 17C0.5 21.5087 2.29107 25.8327 5.47919 29.0208C8.6673 32.2089 12.9913 34 17.5 34Z" fill="#5D5D5D"/>
<path d="M9.60935 26.4201C9.85338 26.561 10.1434 26.5992 10.4156 26.5263C10.6878 26.4533 10.9198 26.2753 11.0607 26.0312C11.7137 24.9003 12.6529 23.9612 13.7839 23.3085C14.9149 22.6557 16.1978 22.3122 17.5037 22.3125C20.2556 22.3125 22.659 23.8064 23.9467 26.0312C24.0886 26.2733 24.3205 26.4494 24.5917 26.5211C24.863 26.5928 25.1516 26.5543 25.3946 26.414C25.6376 26.2738 25.8152 26.043 25.8887 25.7723C25.9622 25.5015 25.9256 25.2127 25.787 24.9688C24.9475 23.5148 23.7401 22.3075 22.286 21.4682C20.832 20.6289 19.1826 20.1872 17.5037 20.1875C15.8248 20.1872 14.1754 20.6289 12.7214 21.4682C11.2674 22.3075 10.0599 23.5148 9.22047 24.9688C9.07958 25.2128 9.0414 25.5028 9.11433 25.775C9.18726 26.0472 9.36532 26.2792 9.60935 26.4201ZM15.3787 13.8125C15.3787 15.572 14.4267 17 13.2537 17C12.0807 17 11.1287 15.572 11.1287 13.8125C11.1287 12.053 12.0807 10.625 13.2537 10.625C14.4267 10.625 15.3787 12.053 15.3787 13.8125ZM23.8787 13.8125C23.8787 15.572 22.9267 17 21.7537 17C20.5807 17 19.6287 15.572 19.6287 13.8125C19.6287 12.053 20.5807 10.625 21.7537 10.625C22.9267 10.625 23.8787 12.053 23.8787 13.8125Z" fill="#5D5D5D"/>
</g>
<defs>
<clipPath id="clip0_3263_225187">
<rect width="34" height="34" fill="white" transform="translate(0.5)"/>
</clipPath>
</defs>
</svg>
