<svg width="34" height="34" viewBox="0 0 34 34" fill="none" xmlns="http://www.w3.org/2000/svg">
<g clip-path="url(#clip0_3263_224746)">
<circle cx="17" cy="17" r="17" fill="#E7E7E7"/>
<path d="M17 31.875C13.0549 31.875 9.27139 30.3078 6.48179 27.5182C3.69218 24.7286 2.125 20.9451 2.125 17C2.125 13.0549 3.69218 9.27139 6.48179 6.48179C9.27139 3.69218 13.0549 2.125 17 2.125C20.9451 2.125 24.7286 3.69218 27.5182 6.48179C30.3078 9.27139 31.875 13.0549 31.875 17C31.875 20.9451 30.3078 24.7286 27.5182 27.5182C24.7286 30.3078 20.9451 31.875 17 31.875ZM17 34C21.5087 34 25.8327 32.2089 29.0208 29.0208C32.2089 25.8327 34 21.5087 34 17C34 12.4913 32.2089 8.1673 29.0208 4.97919C25.8327 1.79107 21.5087 0 17 0C12.4913 0 8.1673 1.79107 4.97919 4.97919C1.79107 8.1673 0 12.4913 0 17C0 21.5087 1.79107 25.8327 4.97919 29.0208C8.1673 32.2089 12.4913 34 17 34Z" fill="#3B3B3B"/>
<path d="M8.5 22.3125C8.5 22.5943 8.61194 22.8645 8.8112 23.0638C9.01046 23.2631 9.28071 23.375 9.5625 23.375H24.4375C24.7193 23.375 24.9895 23.2631 25.1888 23.0638C25.3881 22.8645 25.5 22.5943 25.5 22.3125C25.5 22.0307 25.3881 21.7605 25.1888 21.5612C24.9895 21.3619 24.7193 21.25 24.4375 21.25H9.5625C9.28071 21.25 9.01046 21.3619 8.8112 21.5612C8.61194 21.7605 8.5 22.0307 8.5 22.3125ZM14.875 13.8125C14.875 12.053 13.923 10.625 12.75 10.625C11.577 10.625 10.625 12.053 10.625 13.8125C10.625 15.572 11.577 17 12.75 17C13.923 17 14.875 15.572 14.875 13.8125ZM23.375 13.8125C23.375 12.053 22.423 10.625 21.25 10.625C20.077 10.625 19.125 12.053 19.125 13.8125C19.125 15.572 20.077 17 21.25 17C22.423 17 23.375 15.572 23.375 13.8125Z" fill="#3B3B3B"/>
</g>
<defs>
<clipPath id="clip0_3263_224746">
<rect width="34" height="34" fill="white"/>
</clipPath>
</defs>
</svg>
