<svg width="34" height="34" viewBox="0 0 34 34" fill="none" xmlns="http://www.w3.org/2000/svg">
<g clip-path="url(#clip0_3263_224742)">
<circle cx="17" cy="17" r="17" fill="#C5DBF2"/>
<path d="M17 31.875C13.0549 31.875 9.27139 30.3078 6.48179 27.5182C3.69218 24.7286 2.125 20.9451 2.125 17C2.125 13.0549 3.69218 9.27139 6.48179 6.48179C9.27139 3.69218 13.0549 2.125 17 2.125C20.9451 2.125 24.7286 3.69218 27.5182 6.48179C30.3078 9.27139 31.875 13.0549 31.875 17C31.875 20.9451 30.3078 24.7286 27.5182 27.5182C24.7286 30.3078 20.9451 31.875 17 31.875ZM17 34C21.5087 34 25.8327 32.2089 29.0208 29.0208C32.2089 25.8327 34 21.5087 34 17C34 12.4913 32.2089 8.1673 29.0208 4.97919C25.8327 1.79107 21.5087 0 17 0C12.4913 0 8.1673 1.79107 4.97919 4.97919C1.79107 8.1673 0 12.4913 0 17C0 21.5087 1.79107 25.8327 4.97919 29.0208C8.1673 32.2089 12.4913 34 17 34Z" fill="#1E5086"/>
<path d="M9.10935 20.3299C9.35338 20.189 9.64338 20.1508 9.91557 20.2237C10.1878 20.2967 10.4198 20.4747 10.5607 20.7188C11.2137 21.8497 12.1529 22.7888 13.2839 23.4415C14.4149 24.0943 15.6978 24.4378 17.0037 24.4375C18.3096 24.4378 19.5926 24.0943 20.7236 23.4415C21.8546 22.7888 22.7938 21.8497 23.4467 20.7188C23.516 20.5969 23.6086 20.49 23.7194 20.4042C23.8301 20.3183 23.9568 20.2552 24.092 20.2185C24.2272 20.1818 24.3684 20.1722 24.5073 20.1903C24.6463 20.2083 24.7803 20.2537 24.9016 20.3238C25.023 20.3938 25.1293 20.4872 25.2144 20.5985C25.2995 20.7098 25.3618 20.8369 25.3976 20.9723C25.4334 21.1078 25.4421 21.249 25.4231 21.3878C25.4041 21.5267 25.3578 21.6604 25.287 21.7812C24.4475 23.2352 23.2401 24.4425 21.786 25.2818C20.332 26.1211 18.6826 26.5628 17.0037 26.5625C15.3248 26.5628 13.6754 26.1211 12.2214 25.2818C10.7674 24.4425 9.55992 23.2352 8.72047 21.7812C8.57958 21.5372 8.5414 21.2472 8.61433 20.975C8.68726 20.7028 8.86532 20.4708 9.10935 20.3299ZM14.8787 13.8125C14.8787 15.572 13.9267 17 12.7537 17C11.5807 17 10.6287 15.572 10.6287 13.8125C10.6287 12.053 11.5807 10.625 12.7537 10.625C13.9267 10.625 14.8787 12.053 14.8787 13.8125ZM23.3787 13.8125C23.3787 15.572 22.4267 17 21.2537 17C20.0807 17 19.1287 15.572 19.1287 13.8125C19.1287 12.053 20.0807 10.625 21.2537 10.625C22.4267 10.625 23.3787 12.053 23.3787 13.8125Z" fill="#1E5086"/>
</g>
<defs>
<clipPath id="clip0_3263_224742">
<rect width="34" height="34" fill="white"/>
</clipPath>
</defs>
</svg>
