<svg width="34" height="34" viewBox="0 0 34 34" fill="none" xmlns="http://www.w3.org/2000/svg">
<g clip-path="url(#clip0_3327_96762)">
<circle cx="17" cy="17" r="17" fill="#C7EBC9"/>
<path d="M17 31.875C13.0549 31.875 9.27139 30.3078 6.48179 27.5182C3.69218 24.7286 2.125 20.9451 2.125 17C2.125 13.0549 3.69218 9.27139 6.48179 6.48179C9.27139 3.69218 13.0549 2.125 17 2.125C20.9451 2.125 24.7286 3.69218 27.5182 6.48179C30.3078 9.27139 31.875 13.0549 31.875 17C31.875 20.9451 30.3078 24.7286 27.5182 27.5182C24.7286 30.3078 20.9451 31.875 17 31.875ZM17 34C21.5087 34 25.8327 32.2089 29.0208 29.0208C32.2089 25.8327 34 21.5087 34 17C34 12.4913 32.2089 8.1673 29.0208 4.97919C25.8327 1.79107 21.5087 0 17 0C12.4913 0 8.1673 1.79107 4.97919 4.97919C1.79107 8.1673 0 12.4913 0 17C0 21.5087 1.79107 25.8327 4.97919 29.0208C8.1673 32.2089 12.4913 34 17 34Z" fill="#2A6B2D"/>
<path d="M26.2049 21.1379C26.3915 21.461 26.4896 21.8274 26.4896 22.2004C26.4896 22.5735 26.3915 22.9399 26.2049 23.2629C25.2723 24.8784 23.9307 26.2199 22.3151 27.1524C20.6996 28.085 18.867 28.5758 17.0016 28.5754C15.1365 28.5754 13.3044 28.0844 11.6892 27.1519C10.0741 26.2194 8.73284 24.8781 7.80032 23.2629C7.61391 22.9401 7.51572 22.5738 7.51563 22.201C7.51553 21.8282 7.61353 21.4619 7.79978 21.1389C7.98603 20.8159 8.25397 20.5476 8.57671 20.361C8.89945 20.1743 9.26562 20.0758 9.63845 20.0754H24.3647C24.7377 20.0754 25.1041 20.1736 25.4272 20.3601C25.7502 20.5467 26.0184 20.8149 26.2049 21.1379Z" fill="#2A6B2D"/>
<path d="M12.75 17C13.923 17 14.875 15.572 14.875 13.8125C14.875 12.053 13.923 10.625 12.75 10.625C11.577 10.625 10.625 12.053 10.625 13.8125C10.625 15.572 11.577 17 12.75 17Z" fill="#2A6B2D"/>
<path d="M21.25 17C22.423 17 23.375 15.572 23.375 13.8125C23.375 12.053 22.423 10.625 21.25 10.625C20.077 10.625 19.125 12.053 19.125 13.8125C19.125 15.572 20.077 17 21.25 17Z" fill="#2A6B2D"/>
</g>
<defs>
<clipPath id="clip0_3327_96762">
<rect width="34" height="34" fill="white"/>
</clipPath>
</defs>
</svg>
