<svg width="34" height="34" viewBox="0 0 34 34" fill="none" xmlns="http://www.w3.org/2000/svg">
<g clip-path="url(#clip0_3263_225191)">
<circle cx="17" cy="17" r="17" fill="white"/>
<path d="M17 31.875C13.0549 31.875 9.27139 30.3078 6.48179 27.5182C3.69218 24.7286 2.125 20.9451 2.125 17C2.125 13.0549 3.69218 9.27139 6.48179 6.48179C9.27139 3.69218 13.0549 2.125 17 2.125C20.9451 2.125 24.7286 3.69218 27.5182 6.48179C30.3078 9.27139 31.875 13.0549 31.875 17C31.875 20.9451 30.3078 24.7286 27.5182 27.5182C24.7286 30.3078 20.9451 31.875 17 31.875ZM17 34C21.5087 34 25.8327 32.2089 29.0208 29.0208C32.2089 25.8327 34 21.5087 34 17C34 12.4913 32.2089 8.1673 29.0208 4.97919C25.8327 1.79107 21.5087 0 17 0C12.4913 0 8.1673 1.79107 4.97919 4.97919C1.79107 8.1673 0 12.4913 0 17C0 21.5087 1.79107 25.8327 4.97919 29.0208C8.1673 32.2089 12.4913 34 17 34Z" fill="#5D5D5D"/>
<path d="M9.10608 26.4197C9.35011 26.5606 9.64012 26.5987 9.9123 26.5258C10.1845 26.4529 10.4166 26.2748 10.5575 26.0308C11.2104 24.8999 12.1496 23.9608 13.2806 23.308C14.4116 22.6552 15.6946 22.3117 17.0005 22.312C19.7523 22.312 22.1557 23.8059 23.4435 26.0308C23.5854 26.2728 23.8172 26.4489 24.0885 26.5206C24.3597 26.5924 24.6483 26.5539 24.8913 26.4136C25.1343 26.2733 25.3119 26.0426 25.3854 25.7718C25.459 25.501 25.4224 25.2122 25.2837 24.9683C24.4443 23.5143 23.2368 22.307 21.7828 21.4677C20.3287 20.6284 18.6793 20.1867 17.0005 20.187C15.3216 20.1867 13.6722 20.6284 12.2181 21.4677C10.7641 22.307 9.55665 23.5143 8.71721 24.9683C8.57632 25.2123 8.53814 25.5023 8.61106 25.7745C8.68399 26.0467 8.86205 26.2788 9.10608 26.4197ZM23.962 8.61216C24.0868 8.54837 24.2231 8.50993 24.3629 8.49905C24.5027 8.48817 24.6433 8.50508 24.7765 8.54878C24.9097 8.59249 25.033 8.66214 25.1392 8.75371C25.2454 8.84529 25.3324 8.95697 25.3952 9.08234C25.458 9.2077 25.4954 9.34426 25.5052 9.48413C25.515 9.62401 25.497 9.76445 25.4523 9.89734C25.4075 10.0302 25.3369 10.153 25.2446 10.2584C25.1522 10.3639 25.0398 10.4501 24.914 10.5119L22.7698 11.5829C23.1438 12.1567 23.3755 12.9429 23.3755 13.812C23.3755 15.5715 22.4235 16.9995 21.2505 16.9995C20.0775 16.9995 19.1255 15.5715 19.1255 13.812C19.1255 13.2872 19.2105 12.792 19.3592 12.3543C19.2604 12.2303 19.1904 12.0859 19.1544 11.9316C19.1184 11.7772 19.1172 11.6167 19.151 11.4618C19.1848 11.3069 19.2526 11.1615 19.3497 11.0362C19.4467 10.9108 19.5705 10.8087 19.712 10.7372L23.962 8.61216ZM10.039 8.61216C9.78734 8.4885 9.49704 8.4693 9.23132 8.55875C8.96561 8.6482 8.74602 8.83905 8.62041 9.08971C8.4948 9.34037 8.47336 9.63051 8.56075 9.89691C8.64814 10.1633 8.83728 10.3844 9.08696 10.5119L11.2311 11.5829C10.8209 12.2531 10.6108 13.0265 10.6255 13.812C10.6255 15.5715 11.5775 16.9995 12.7505 16.9995C13.9235 16.9995 14.8755 15.5715 14.8755 13.812C14.8755 13.2872 14.7905 12.792 14.6417 12.3543C14.7405 12.2303 14.8105 12.0859 14.8465 11.9316C14.8826 11.7772 14.8837 11.6167 14.8499 11.4618C14.8161 11.3069 14.7483 11.1615 14.6512 11.0362C14.5542 10.9108 14.4304 10.8087 14.289 10.7372L10.039 8.61216Z" fill="#5D5D5D"/>
</g>
<defs>
<clipPath id="clip0_3263_225191">
<rect width="34" height="34" fill="white"/>
</clipPath>
</defs>
</svg>
