<svg width="34" height="34" viewBox="0 0 34 34" fill="none" xmlns="http://www.w3.org/2000/svg">
<g clip-path="url(#clip0_3327_96926)">
<circle cx="17" cy="17" r="17" fill="#FDE1A1"/>
<path d="M17 31.875C13.0549 31.875 9.27139 30.3078 6.48179 27.5182C3.69218 24.7286 2.125 20.9451 2.125 17C2.125 13.0549 3.69218 9.27139 6.48179 6.48179C9.27139 3.69218 13.0549 2.125 17 2.125C20.9451 2.125 24.7286 3.69218 27.5182 6.48179C30.3078 9.27139 31.875 13.0549 31.875 17C31.875 20.9451 30.3078 24.7286 27.5182 27.5182C24.7286 30.3078 20.9451 31.875 17 31.875ZM17 34C21.5087 34 25.8327 32.2089 29.0208 29.0208C32.2089 25.8327 34 21.5087 34 17C34 12.4913 32.2089 8.1673 29.0208 4.97919C25.8327 1.79107 21.5087 0 17 0C12.4913 0 8.1673 1.79107 4.97919 4.97919C1.79107 8.1673 0 12.4913 0 17C0 21.5087 1.79107 25.8327 4.97919 29.0208C8.1673 32.2089 12.4913 34 17 34Z" fill="#6B4A0D"/>
<path d="M9.10935 26.4201C9.35338 26.561 9.64338 26.5992 9.91557 26.5263C10.1878 26.4533 10.4198 26.2753 10.5607 26.0312C11.2137 24.9003 12.1529 23.9612 13.2839 23.3085C14.4149 22.6557 15.6978 22.3122 17.0037 22.3125C19.7556 22.3125 22.159 23.8064 23.4467 26.0312C23.5886 26.2733 23.8205 26.4494 24.0917 26.5211C24.363 26.5928 24.6516 26.5543 24.8946 26.414C25.1376 26.2738 25.3152 26.043 25.3887 25.7723C25.4622 25.5015 25.4256 25.2127 25.287 24.9688C24.4475 23.5148 23.2401 22.3075 21.786 21.4682C20.332 20.6289 18.6826 20.1872 17.0037 20.1875C15.3248 20.1872 13.6754 20.6289 12.2214 21.4682C10.7674 22.3075 9.55992 23.5148 8.72047 24.9688C8.57958 25.2128 8.5414 25.5028 8.61433 25.775C8.68726 26.0472 8.86532 26.2792 9.10935 26.4201ZM14.8787 13.8125C14.8787 15.572 13.9267 17 12.7537 17C11.5807 17 10.6287 15.572 10.6287 13.8125C10.6287 12.053 11.5807 10.625 12.7537 10.625C13.9267 10.625 14.8787 12.053 14.8787 13.8125ZM23.3787 13.8125C23.3787 15.572 22.4267 17 21.2537 17C20.0807 17 19.1287 15.572 19.1287 13.8125C19.1287 12.053 20.0807 10.625 21.2537 10.625C22.4267 10.625 23.3787 12.053 23.3787 13.8125Z" fill="#6B4A0D"/>
</g>
<defs>
<clipPath id="clip0_3327_96926">
<rect width="34" height="34" fill="white"/>
</clipPath>
</defs>
</svg>
