<svg width="24" height="24" viewBox="0 0 24 24" fill="none" xmlns="http://www.w3.org/2000/svg">
<path d="M0.698161 2.09921C0.608091 2.00914 0.536643 1.90221 0.487897 1.78453C0.439152 1.66684 0.414063 1.54071 0.414062 1.41333C0.414062 1.28595 0.439152 1.15982 0.487897 1.04214C0.536643 0.924458 0.608091 0.817528 0.698161 0.727458C0.788231 0.637387 0.895161 0.56594 1.01284 0.517194C1.13053 0.468449 1.25666 0.443359 1.38404 0.443359C1.51141 0.443359 1.63755 0.468449 1.75523 0.517194C1.87291 0.56594 1.97984 0.637387 2.06991 0.727458L12.0403 10.6998L22.0107 0.727458C22.1007 0.637387 22.2077 0.56594 22.3253 0.517194C22.443 0.468449 22.5692 0.443359 22.6965 0.443359C22.8239 0.443359 22.95 0.468449 23.0677 0.517194C23.1854 0.56594 23.2923 0.637387 23.3824 0.727458C23.4725 0.817528 23.5439 0.924458 23.5927 1.04214C23.6414 1.15982 23.6665 1.28595 23.6665 1.41333C23.6665 1.54071 23.6414 1.66684 23.5927 1.78453C23.5439 1.90221 23.4725 2.00914 23.3824 2.09921L13.4101 12.0696L23.3824 22.04C23.4725 22.13 23.5439 22.237 23.5927 22.3546C23.6414 22.4723 23.6665 22.5985 23.6665 22.7258C23.6665 22.8532 23.6414 22.9793 23.5927 23.097C23.5439 23.2147 23.4725 23.3216 23.3824 23.4117C23.2923 23.5018 23.1854 23.5732 23.0677 23.622C22.95 23.6707 22.8239 23.6958 22.6965 23.6958C22.5692 23.6958 22.443 23.6707 22.3253 23.622C22.2077 23.5732 22.1007 23.5018 22.0107 23.4117L12.0403 13.4394L2.06991 23.4117C1.97984 23.5018 1.87291 23.5732 1.75523 23.622C1.63755 23.6707 1.51141 23.6958 1.38404 23.6958C1.25666 23.6958 1.13053 23.6707 1.01284 23.622C0.895161 23.5732 0.788231 23.5018 0.698161 23.4117C0.608091 23.3216 0.536643 23.2147 0.487897 23.097C0.439152 22.9793 0.414062 22.8532 0.414062 22.7258C0.414062 22.5985 0.439152 22.4723 0.487897 22.3546C0.536643 22.237 0.608091 22.13 0.698161 22.04L10.6705 12.0696L0.698161 2.09921Z" fill="#3B3B3B"/>
</svg>
