<svg width="49" height="49" viewBox="0 0 49 49" fill="none" xmlns="http://www.w3.org/2000/svg">
<g clip-path="url(#clip0_2235_265452)">
<path d="M23.0141 12.9934C22.7656 12.662 22.2955 12.5949 21.9641 12.8434C21.6327 13.0919 21.5656 13.562 21.8141 13.8934C24.3641 17.2934 29.4641 17.2934 32.0141 13.8934C32.2626 13.562 32.1955 13.0919 31.8641 12.8434C31.5327 12.5949 31.0626 12.662 30.8141 12.9934C28.8641 15.5934 24.9641 15.5934 23.0141 12.9934Z" fill="#3B3B3B"/>
<path d="M24.4141 8.44336C24.4141 8.99564 23.9663 9.44336 23.4141 9.44336C22.8618 9.44336 22.4141 8.99564 22.4141 8.44336C22.4141 7.89107 22.8618 7.44336 23.4141 7.44336C23.9663 7.44336 24.4141 7.89107 24.4141 8.44336Z" fill="#3B3B3B"/>
<path d="M30.4141 9.44336C30.9663 9.44336 31.4141 8.99564 31.4141 8.44336C31.4141 7.89107 30.9663 7.44336 30.4141 7.44336C29.8618 7.44336 29.4141 7.89107 29.4141 8.44336C29.4141 8.99564 29.8618 9.44336 30.4141 9.44336Z" fill="#3B3B3B"/>
<path fill-rule="evenodd" clip-rule="evenodd" d="M26.9141 0.443359C32.7575 0.443359 37.4141 5.09988 37.4141 10.9434C37.4141 16.7868 32.7575 21.4434 26.9141 21.4434C21.0706 21.4434 16.4141 16.7868 16.4141 10.9434C16.4141 5.09988 21.0706 0.443359 26.9141 0.443359ZM35.9141 10.9434C35.9141 5.92831 31.9291 1.94336 26.9141 1.94336C21.899 1.94336 17.9141 5.92831 17.9141 10.9434C17.9141 15.9584 21.899 19.9434 26.9141 19.9434C31.9291 19.9434 35.9141 15.9584 35.9141 10.9434Z" fill="#3B3B3B"/>
<path d="M14.4141 6.19421C14.4141 5.78 14.0783 5.44421 13.6641 5.44421H2.41406C1.30949 5.44421 0.414062 6.33964 0.414062 7.44421V46.4442C0.414062 47.5488 1.30949 48.4442 2.41406 48.4442H33.4141C34.5186 48.4442 35.4141 47.5488 35.4141 46.4442V29.1934C35.4141 28.7791 35.0783 28.4434 34.6641 28.4434C34.2498 28.4434 33.9141 28.7791 33.9141 29.1934V46.4442C33.9141 46.7204 33.6902 46.9442 33.4141 46.9442H2.41406C2.13792 46.9442 1.91406 46.7204 1.91406 46.4442V7.44421C1.91406 7.16807 2.13792 6.94421 2.41406 6.94421H13.6641C14.0783 6.94421 14.4141 6.60843 14.4141 6.19421Z" fill="#3B3B3B"/>
<path d="M17.2642 24.9434C17.6784 24.9434 18.0142 24.6076 18.0142 24.1934C18.0142 23.7791 17.6784 23.4434 17.2642 23.4434H6.76416C6.34995 23.4434 6.01416 23.7791 6.01416 24.1934C6.01416 24.6076 6.34995 24.9434 6.76416 24.9434H17.2642Z" fill="#3B3B3B"/>
<path d="M23.2642 31.4434C23.6784 31.4434 24.0142 31.7791 24.0142 32.1934C24.0142 32.6076 23.6784 32.9434 23.2642 32.9434H6.76416C6.34995 32.9434 6.01416 32.6076 6.01416 32.1934C6.01416 31.7791 6.34995 31.4434 6.76416 31.4434H23.2642Z" fill="#3B3B3B"/>
<path d="M23.2642 39.4434C23.6784 39.4434 24.0142 39.7791 24.0142 40.1934C24.0142 40.6076 23.6784 40.9434 23.2642 40.9434H6.76416C6.34995 40.9434 6.01416 40.6076 6.01416 40.1934C6.01416 39.7791 6.34995 39.4434 6.76416 39.4434H23.2642Z" fill="#3B3B3B"/>
<path d="M38.7374 6.96734C38.4397 6.94154 38.1782 6.74893 38.0681 6.47113C37.8735 5.97988 38.209 5.42302 38.736 5.46202C43.0268 5.77958 46.8112 8.72723 48.0335 13.141C49.5931 18.7725 46.3483 24.5029 40.7168 26.0625C36.9439 27.1074 33.1266 25.9958 30.5488 23.4547C30.1702 23.0815 30.3787 22.4577 30.8813 22.2844C31.1614 22.1878 31.47 22.2604 31.6836 22.4658C33.8902 24.5866 37.1188 25.5024 40.3164 24.6169C45.1496 23.2784 47.9264 18.3745 46.5879 13.5413C45.5499 9.79334 42.3678 7.28194 38.7374 6.96734Z" fill="#3B3B3B"/>
<path d="M42.4141 13.4434C42.4141 13.9956 41.9663 14.4434 41.4141 14.4434C40.8618 14.4434 40.4141 13.9956 40.4141 13.4434C40.4141 12.8911 40.8618 12.4434 41.4141 12.4434C41.9663 12.4434 42.4141 12.8911 42.4141 13.4434Z" fill="#3B3B3B"/>
<path d="M34.9022 22.0129C36.6353 20.5273 39.1928 20.5273 40.926 22.0129C41.2405 22.2824 41.714 22.246 41.9835 21.9315C42.2531 21.617 42.2167 21.1435 41.9022 20.874C39.6073 18.9069 36.2209 18.9069 33.926 20.874C33.6115 21.1435 33.5751 21.617 33.8446 21.9315C34.1142 22.246 34.5877 22.2824 34.9022 22.0129Z" fill="#3B3B3B"/>
</g>
<defs>
<clipPath id="clip0_2235_265452">
<rect width="48" height="48" fill="white" transform="translate(0.414062 0.443359)"/>
</clipPath>
</defs>
</svg>
